{"title":"Finding Neverland *2004*[BluRay][1080p][ENG, POL]","uid":6610678,"size":9657047593,"categoryP":"video","categoryS":"hd___movies","magnet":"?xt=urn:btih:734762496ed99a8eb10a88949afe0311b983527b&amp;dn=Finding+Neverland+%2A2004%2A%5BBluRay%5D%5B1080p%5D%5BENG%2C+POL%5D&amp;tr=udp%3A%2F%2Ftracker.openbittorrent.com%3A80&amp;tr=udp%3A%2F%2Fopen.demonii.com%3A1337&amp;tr=udp%3A%2F%2Ftracker.coppersurfer.tk%3A6969&amp;tr=udp%3A%2F%2Fexodus.desync.com%3A6969","seeders":1,"leechers":2,"uploader":"albedo040","files":1,"time":1313580353,"description":"Finding Neverland *2004*[BluRay][1080p][ENG, POL]\n\nGeneral information:\nCountry: USA, UK \nRelease: 4 September 2004 (Venice Film Festival)\nGenre: Drama  \nDirector: Marc Forster\nScreenplay: David Magee\nOriginal Music: Jan A.P. Kaczmarek\nCinematography by: Roberto Schaefer\nDuration: 1h 41mn\nLanguage: English, Polish\nSubtitles: English, Polish\nRating:  - 7.8/10 \n81979 votes\n\nCast:\nJohnny Depp ...Sir James Matthew Barrie\nKate Winslet ...Sylvia Llewelyn Davies\nJulie Christie ...Mrs. Emma du Maurier\nRadha Mitchell ...Mary Ansell Barrie\nDustin Hoffman ...Charles Frohman\nFreddie Highmore ...Peter Llewelyn Davies\nJoe Prospero ...Jack Llewelyn Davies\nNick Roud ...George Llewelyn Davies\nLuke Spill ...Michael Llewelyn Davies\nIan Hart ...Sir Arthur Conan Doyle\nKelly Macdonald ...'Peter Pan'\nMackenzie Crook ...Mr. Jaspers - Usher\nEileen Essell ...Mrs. Snow\nJimmy Gardner ...Mr. Snow\nOliver Fox ...Gilbert Cannan\n\nPlot:\nThe story of J.M. Barrie's friendship with a family who inspired him to create Peter Pan.\n\nSpecifications:\nFormat                           : Matroska\nFormat version                   : Version 2\nOverall bit rate                 : 12.7 Mbps\n\nVideo\nFormat                           : AVC\nFormat/Info                      : Advanced Video Codec\nFormat profile                   : &lt;a class=&quot;__cf_email__&quot; href=&quot;/cdn-cgi/l/email-protection&quot; data-cfemail=&quot;eaa2838d82aaa6dec4db&quot;&gt;[email&amp;#160;protected]&lt;/a&gt;&lt;script cf-hash='f9e31' type=&quot;text/javascript&quot;&gt;\n/* &lt;![CDATA[ */!function(){try{var t=&quot;currentScript&quot;in document?document.currentScript:function(){for(var t=document.getElementsByTagName(&quot;script&quot;),e=t.length;e--;)if(t[e].getAttribute(&quot;cf-hash&quot;))return t[e]}();if(t&amp;&amp;t.previousSibling){var e,r,n,i,c=t.previousSibling,a=c.getAttribute(&quot;data-cfemail&quot;);if(a){for(e=&quot;&quot;,r=parseInt(a.substr(0,2),16),n=2;a.length-n;n+=2)i=parseInt(a.substr(n,2),16)^r,e+=String.fromCharCode(i);e=document.createTextNode(e),c.parentNode.replaceChild(e,c)}}}catch(u){}}();/* ]]&gt; */&lt;/script&gt;\nFormat settings, CABAC           : Yes\nFormat settings, ReFrames        : 5 frames\nMuxing mode                      : Header stripping\nCodec ID                         : V_MPEG4/ISO/AVC\nBit rate                         : 10.8 Mbps\nWidth                            : 1 920 pixels\nHeight                           : 816 pixels\nDisplay aspect ratio             : 2.35:1\nFrame rate                       : 23.976 fps\n\nAudio 1\nFormat                           : DTS\nFormat/Info                      : Digital Theater Systems\nMuxing mode                      : Header stripping\nCodec ID                         : A_DTS\nBit rate mode                    : Constant\nBit rate                         : 1 510 Kbps\nChannel(s)                       : 6 channels\nChannel positions                : Front: L C R, Side: L R, LFE\nSampling rate                    : 48.0 KHz\nBit depth                        : 24 bits\nCompression mode                 : Lossy\nStream size                      : 1.07 GiB (12%)\nTitle                            : English\nLanguage                         : English\n\nAudio 2\nFormat                           : AC-3\nFormat/Info                      : Audio Coding 3\nMode extension                   : CM (complete main)\nMuxing mode                      : Header stripping\nCodec ID                         : A_AC3\nBit rate mode                    : Constant\nBit rate                         : 384 Kbps\nChannel(s)                       : 6 channels\nChannel positions                : Front: L C R, Side: L R, LFE\nSampling rate                    : 48.0 KHz\nBit depth                        : 16 bits\nCompression mode                 : Lossy\nDelay relative to video          : 1s 0ms\nStream size                      : 278 MiB (3%)\nTitle                            : Polish\nLanguage                         : Polish\n\nText 1\nFormat                           : UTF-8\nCodec ID                         : S_TEXT/UTF8\nCodec ID/Info                    : UTF-8 Plain Text\nTitle                            : English\nLanguage                         : English\n\nText 2\nFormat                           : UTF-8\nCodec ID                         : S_TEXT/UTF8\nCodec ID/Info                    : UTF-8 Plain Text\nTitle                            : Polish\nLanguage                         : Polish","torrent":{"xt":"urn:btih:734762496ed99a8eb10a88949afe0311b983527b","amp;dn":"Finding+Neverland+%2A2004%2A%5BBluRay%5D%5B1080p%5D%5BENG%2C+POL%5D","amp;tr":["udp%3A%2F%2Ftracker.openbittorrent.com%3A80","udp%3A%2F%2Fopen.demonii.com%3A1337","udp%3A%2F%2Ftracker.coppersurfer.tk%3A6969","udp%3A%2F%2Fexodus.desync.com%3A6969"],"infoHash":"734762496ed99a8eb10a88949afe0311b983527b","infoHashBuffer":{"type":"Buffer","data":[115,71,98,73,110,217,154,142,177,10,136,148,154,254,3,17,185,131,82,123]},"announce":[],"urlList":[]}}